PathFileType	4	(X/Y/Z)	C:/Users/beibeiliu/ov580/test_trc/User3\sequence.15_training_dense_left.trc
DataRate	CameraRate	NumFrames	NumMarkers	Units	OrigDataRate	OrigDataStartFrame	OrigNumFrames
120	120	15	19	mm	120	30	87
Frame#	Time	ThumbCMC			ThumbMCP			ThumbIP			ThumbTip			IndexMCP			IndexPIP			IndexTip			MiddleMCP			MiddlePIP			MiddleTip			RingMCP			RingPIP			RingTip			PinkyMCP			PinkyPIP			PinkyTip			BackHand1			BackHand2			BackHand3	
		X0	Y0	Z0	X1	Y1	Z1	X2	Y2	Z2	X3	Y3	Z3	X4	Y4	Z4	X5	Y5	Z5	X6	Y6	Z6	X7	Y7	Z7	X8	Y8	Z8	X9	Y9	Z9	X10	Y10	Z10	X11	Y11	Z11	X12	Y12	Z12	X13	Y13	Z13	X14	Y14	Z14	X15	Y15	Z15	X16	Y16	Z16	X17	Y17	Z17	X18	Y18	Z18	
29	0.241667	-83.679	-0.593481	25.0005	-75.0202	-7.53576	-2.73116	-58.1024	-12.3398	-27.5006	-51.9665	-19.0206	-47.8477	-111.523	-0.897398	-42.9388	-105.829	-34.0488	-37.7028	-99.8531	-21.5536	-4.71583	-131.916	-7.72737	-42.1026	-123.637	-38.0877	-30.7549	-115.739	-22.0441	6.54834	-146.246	-8.17025	-35.6644	-140.305	-36.6257	-27.7986	-132.242	-29.6717	3.04125	-164.833	6.35961	-23.5977	-173.696	-0.685379	-46.7562	-177.272	-11.5521	-67.0879	-141.278	26.508	14.0553	-138.929	22.7695	42.6813	-109.408	27.9632	22.9429	
30	0.25	-85.7709	-4.28724	23.9182	-69.3486	-18.4587	1.17361	-61.0444	-31.0087	-18.9439	-51.3773	-41.7847	-39.5399	-105.025	-26.6736	-40.8506	-104.251	-53.2027	-26.681	-100.272	-32.8657	4.74287	-129.27	-27.4987	-34.6055	-121.017	-56.524	-17.0588	-115.19	-34.0386	12.772	-144.344	-31.1672	-30.1825	-138.206	-55.3156	-11.1086	-123.765	-37.7837	12.3289	-165.233	-14.1112	-23.0665	-171.256	-28.157	-39.5338	-171.613	-51.8751	-57.4372	-146.346	17.8169	7.01176	-140.948	21.4075	39.6292	-111.361	22.1005	17.0312	
31	0.258333	-82.9313	1.17649	30.9773	-63.3552	-16.2124	11.9106	-53.3975	-29.9128	-6.69696	-37.9998	-41.7642	-21.4228	-97.8968	-39.132	-29.745	-87.0444	-60.936	-10.8601	-88.4932	-37.0569	14.7114	-115.46	-46.5905	-25.485	-104.482	-64.2785	-1.13283	-103.564	-32.9645	23.4021	-135.806	-46.5894	-16.849	-123.637	-66.3985	0.557435	-115.906	-43.0088	25.4761	-158.951	-33.7789	-13.6417	-158.875	-58.2417	-29.4451	-149.457	-80.485	-29.7742	-144.653	7.06899	6.41895	-141.366	18.2823	37.1677	-108.647	18.1719	14.3262	
32	0.266667	-82.9513	10.3407	32.1675	-61.5772	-2.63346	18.2313	-41.2313	-15.0604	1.06252	-28.8975	-26.937	-12.2509	-81.0194	-35.2176	-21.1161	-69.3161	-56.3648	3.04025	-80.0418	-32.5222	24.2873	-100.784	-49.8769	-15.4654	-85.0594	-64.9327	10.2789	-93.6862	-30.5908	29.5193	-114.929	-55.1577	-8.9478	-102.508	-70.292	14.4605	-103.005	-43.6746	35.8302	-142.697	-53.4232	-7.7844	-128.672	-75.6955	-14.9374	-110.251	-92.8917	0.715586	-142.706	-5.45916	4.93871	-144.436	11.8881	33.9477	-116.432	14.6984	15.3413	
33	0.275	-83.958	24.178	31.2035	-59.1126	15.2214	17.522	-35.0767	6.29685	-0.0864271	-20.4927	0.223486	-7.33218	-67.0572	-32.1582	-12.3302	-50.5996	-43.4203	14.1243	-69.161	-20.0395	30.5961	-75.6071	-48.1691	-6.5344	-61.8059	-53.2267	21.1318	-81.853	-23.6731	35.9279	-89.1679	-57.3346	1.53743	-76.44	-62.2362	26.5432	-88.1561	-34.0085	44.0329	-115.864	-67.1161	-1.22642	-95.5274	-81.8549	0.982049	-77.1189	-90.3725	19.8542	-131.732	-14.9797	4.27277	-143.217	0.553295	26.9621	-116.703	12.673	10.1481	
34	0.283333	-91.5405	31.4079	27.9409	-64.1417	33.7315	16.1442	-41.1853	31.4296	0.77658	-21.8277	28.5841	-11.0435	-51.8566	-16.1207	-8.54713	-36.7392	-18.5328	23.0082	-60.0588	-5.06031	35.081	-53.9534	-35.949	-0.551499	-44.0678	-31.8102	30.3689	-77.1559	-10.0702	36.656	-67.5415	-50.3506	8.46861	-50.9458	-42.5146	35.6232	-74.4315	-20.8187	48.8502	-91.2841	-63.7048	9.51447	-63.1582	-75.6969	9.85167	-41.6896	-72.3505	26.6353	-119.944	-23.0546	5.98315	-139.696	-8.71536	29.1481	-115.64	7.47137	8.55571	
35	0.291667	-100.964	38.2125	25.1785	-75.3884	44.6184	7.62537	-54.4504	49.0014	-6.07386	-34.5752	53.6972	-17.787	-44.0935	2.61487	-9.04039	-30.7682	11.7275	22.2109	-58.2851	14.526	33.1607	-41.6571	-20.4782	2.88767	-33.6407	-5.45429	30.4936	-70.959	4.34886	37.5848	-49.1411	-35.0246	11.8879	-36.4295	-20.5269	38.4901	-62.0056	-5.87308	49.4947	-64.0781	-56.3579	10.1936	-37.8908	-59.1799	10.8542	-17.5486	-56.3897	22.9357	-107.557	-30.1436	7.43487	-131.408	-20.3966	28.6372	-114.328	4.96657	9.93125	
36	0.3	-111.331	36.3498	19.5435	-90.4845	47.8039	0.799291	-72.6611	58.4561	-15.2797	-58.8463	72.7452	-30.3524	-46.0077	12.6504	-11.8416	-31.5527	27.0262	12.3999	-61.3931	24.8155	28.5545	-39.4855	-3.21987	-2.48203	-30.0972	16.0855	22.4945	-67.3397	11.332	36.0967	-41.0618	-19.7756	8.70148	-27.7633	-2.1391	29.989	-60.5383	8.59743	44.3622	-47.3851	-40.764	10.8916	-25.2873	-39.1348	7.27842	0.685228	-36.6629	10.8372	-97.644	-32.7616	13.9789	-120.506	-27.4563	30.6203	-113.169	-1.1171	9.22228	
37	0.308333	-117.623	26.4943	15.019	-105.274	41.8854	-8.16815	-94.1386	55.4837	-25.9031	-86.7829	69.8201	-43.4201	-51.0471	20.0473	-21.5723	-43.1129	40.274	0.420562	-71.4179	33.4	16.1099	-43.0449	3.40193	-10.6553	-35.3148	27.6656	10.9452	-68.0267	17.3711	27.7542	-37.1474	-10.3118	0.98641	-29.4272	16.6619	19.0501	-59.8489	13.9918	37.5111	-41.9677	-33.33	10.281	-19.5383	-28.0773	1.19697	-1.52907	-21.513	-8.18809	-91.8742	-31.4583	14.3816	-109.5	-35.8078	37.237	-113.537	-7.43995	5.94267	
38	0.316667	-123.464	13.6982	15.0282	-122.848	30.9273	-11.1632	-118.109	42.0216	-36.8654	-111.846	51.7603	-52.5166	-70.7987	12.8199	-36.0482	-61.9292	42.078	-20.0561	-79.6583	29.8745	5.07111	-56.0578	5.15495	-27.9157	-47.3334	31.5053	-8.39911	-75.1459	15.5941	16.7403	-43.8052	-5.14191	-16.4048	-35.1101	21.0479	-2.24211	-59.6268	19.3054	21.0001	-39.9684	-27.5156	-3.62083	-21.9432	-23.9031	-15.1825	-2.28763	-17.1997	-31.6757	-83.8602	-37.0186	16.0758	-101.876	-36.6005	38.123	-116.218	-19.1464	8.86889	
39	0.325	-128.017	4.96656	19.4064	-129.943	15.5374	-6.02473	-135.726	23.3601	-37.896	-139.312	30.8343	-60.0362	-88.2051	2.04281	-44.3056	-79.1946	28.6622	-36.0471	-92.9945	21.5301	-3.25849	-68.6665	-6.21238	-37.6319	-63.5039	22.452	-23.3242	-80.2047	12.6414	6.81903	-60.0274	-15.3054	-28.5948	-49.3335	12.9605	-19.4928	-67.6172	11.9745	10.4716	-49.2942	-35.8161	-16.3692	-36.8623	-31.4019	-33.6356	-23.1683	-23.167	-52.9618	-90.44	-44.1466	14.9511	-96.102	-40.8427	43.6623	-121.927	-26.6094	17.7393	
40	0.333333	-139.342	8.8166	25.8587	-143.904	12.6782	-0.874448	-155.477	17.3582	-27.5325	-163.665	23.8676	-46.7849	-119.296	-10.1728	-43.5814	-104.548	16.645	-38.9824	-103.923	14.0788	-6.68243	-101.286	-19.4608	-40.6415	-87.3392	8.63925	-34.8564	-99.334	6.62911	3.36757	-87.0378	-29.6586	-34.0592	-73.4993	-1.68472	-33.1232	-84.1055	4.09827	1.17793	-81.775	-48.906	-20.9728	-72.0709	-47.7839	-43.967	-67.7104	-40.2157	-67.169	-104.765	-51.9702	16.736	-105.361	-42.7161	48.176	-133.262	-29.8043	29.171	
41	0.341667	-139.779	23.8041	37.2988	-145.727	30.0546	12.3227	-164.345	40.0007	-15.9085	-172.548	43.3168	-34.6067	-157.727	1.9604	-28.4334	-130.896	16.352	-37.5479	-117.845	12.6062	-6.83525	-142.804	-15.8478	-33.9213	-116.415	3.09574	-34.4815	-111.625	-0.691059	4.71489	-132.908	-32.7259	-29.599	-110.22	-11.3955	-35.4038	-102.866	-2.49199	-3.4158	-134.09	-54.0375	-19.819	-135.249	-50.1548	-43.8843	-130.396	-43.505	-69.9858	-142.016	-43.0211	27.1852	-128.637	-35.2878	53.929	-151.177	-10.1377	44.3423	
42	0.35	-129.845	36.2185	39.361	-134.146	53.9049	17.3026	-147.637	63.8514	-9.29059	-152.773	72.456	-27.3264	-169.315	36.6806	-15.6195	-138.049	31.4677	-29.3117	-125.256	21.2172	0.802506	-166.088	12.7604	-24.0054	-135.118	11.2046	-30.181	-124.929	7.99922	10.2655	-166.603	-7.48612	-20.1055	-136.469	-6.92492	-31.4582	-119.002	-2.74766	-3.9378	-178.367	-26.6696	-9.09228	-184.57	-20.8948	-32.12	-184.308	-15.4968	-56.2442	-167.437	-15.8188	39.0776	-147.039	-20.8114	60.2175	-154.972	13.7516	53.4719	
43	0.358333	-111.781	41.6369	42.5947	-112.086	57.4491	18.1242	-113.044	74.7172	-4.13648	-116.974	88.3576	-27.2828	-154.81	58.2249	-12.2743	-128.496	48.1764	-28.0763	-117.183	27.9827	-3.12199	-163.662	39.5013	-15.7123	-131.626	27.9339	-27.4874	-124.061	14.2905	6.91651	-169.057	24.6297	-18.2585	-146.387	13.7713	-31.9089	-125.618	0.747686	-5.32599	-189.084	12.8528	-3.93896	-196.434	16.8566	-24.2109	-199.861	22.7213	-45.2957	-172.33	14.3521	41.3704	-156.057	-5.92851	62.1565	-144.385	32.5261	57.5621	
